<svg version="1.1" id="logo-intk-svg" xmlns="http://www.w3.org/2000/svg" xmlns:xlink="http://www.w3.org/1999/xlink" x="0px" y="0px" width="318px" height="318px" viewBox="0 0 318 318" style="enable-background:new 0 0 318 318;" xml:space="preserve">
<style type="text/css">
    .st0{fill:#231F20;}
    .st1{fill:#FFFFFF;}
</style>
<g>
    <circle class="st0" cx="159" cy="159" r="159"></circle>
</g>
<g>
    <path class="st1" d="M63.2,115.7c0,5.7-4.3,10.4-11.5,10.4c-6.9,0-11.2-4.7-11.2-10.4c0-5.7,4.3-10.3,11.3-10.3
        S63.1,110,63.2,115.7z M41.2,199.4v-65.2h21.2v65.2H41.2z"></path>
    <path class="st1" d="M80,155.4c0-8.5-0.3-15.6-0.5-21.2h18.4l0.9,9.5h0.5c2.4-3.9,9.3-11.1,21.6-11.1c13.6,0,25.3,8.5,25.3,29.2
        v37.6h-21.2v-34.6c0-9.3-3.6-15.2-11.6-15.2c-6.5,0-10.1,4.5-11.6,8.3c-0.5,1.2-0.7,3.1-0.7,4.7v36.9H80V155.4z"></path>
    <path class="st1" d="M187.1,115v18.3H203v16h-15.9v21.9c0,8.1,1.5,12.3,8.8,12.3c3.3,0,4.6,0,6.8-0.7l0.1,16.2
        c-2.8,1.1-8.2,2-14.5,2c-7.4,0-13.5-2.7-17-6.2c-4-4.1-5.9-10.8-5.9-19.9v-25.7H156v-16h9.5v-12.7L187.1,115z"></path>
    <path class="st1" d="M235.6,161.4h0.3c1.7-2.4,3.5-5.2,5.2-7.5l14.8-19.7H282l-25.9,26.1l30,39h-26.7l-18-26.8l-5.9,6.7v20.1h-21.2
        V104h21.2V161.4z"></path>
</g>
</svg>
